<svg width="50" height="70" version="1.1" viewBox="0 0 13.229 18.521" xmlns="http://www.w3.org/2000/svg">
 <path d="m6.6499 0.043075c-3.6361 0.00398-6.5827 2.9924-6.5866 6.68 0 4.571 5.8942 11.282 6.1452 11.566 0.23549 0.26374 0.644 0.26374 0.87949 0 0.25105-0.28381 6.1452-6.9938 6.1452-11.566-0.0039-3.6864-2.9486-6.6742-6.5834-6.68z" fill="#009dd1" stroke-width=".80518"/>
 <circle cx="6.6672" cy="6.657" r="5.6885" fill="#fff" stroke-width=".29964"/>
 <path d="m6.4771 11.04c-0.44263-0.045651-0.81526-0.15043-1.1982-0.33693-0.34762-0.1693-0.60725-0.35314-0.89666-0.63494-0.34508-0.336-0.56332-0.64768-0.74379-1.0623-0.12892-0.29614-0.18207-0.53607-0.19431-0.87709-0.016109-0.44875 0.054161-0.77976 0.24595-1.1585 0.19683-0.38872 0.42279-0.65464 0.93814-1.1041 0.55759-0.48625 0.88355-0.92268 1.0431-1.3966 0.081693-0.24265 0.10278-0.40128 0.091647-0.6893-0.0084991-0.2199-0.019932-0.28798-0.076178-0.45368-0.036396-0.10723-0.11459-0.27346-0.17376-0.3694-0.092356-0.14974-0.10877-0.19231-0.11596-0.30067-0.010365-0.15618 0.017544-0.24321 0.11345-0.35376 0.10754-0.12396 0.21763-0.17462 0.38194-0.17577 0.16286-0.00117 0.22314 0.025424 0.5793 0.25525 0.51107 0.32978 0.97263 0.6946 1.4153 1.1187 1.1257 1.0783 1.7676 2.1885 1.9816 3.4273 0.061392 0.35538 0.066715 1.048 0.010804 1.4058-0.12109 0.77483-0.39718 1.3434-0.88722 1.8272-0.51148 0.50498-1.1605 0.80844-1.8814 0.87974-0.25548 0.02526-0.38109 0.02507-0.63375-9.93e-4zm0.86096-1.0617c0.70125-0.18472 1.2394-0.73973 1.4253-1.4699 0.37171-1.46-0.24118-3.0013-1.7477-4.395l-0.2184-0.20204-0.0054531 0.10261c-0.021212 0.39933-0.14652 0.86735-0.32777 1.2242-0.25756 0.50708-0.5978 0.91612-1.1766 1.4145-0.34291 0.29526-0.52849 0.51351-0.65303 0.76799-0.25285 0.51663-0.19939 1.0429 0.15976 1.5727 0.35565 0.52461 0.92548 0.90088 1.5351 1.0136 0.23743 0.04393 0.79307 0.0281 1.0088-0.02873z" fill="#009dd1" stroke-width=".02066"/>
</svg>
