<svg width="48" height="48" version="1.1" viewBox="0 0 12.7 12.7" xmlns="http://www.w3.org/2000/svg">
 <path d="m6.35 0a6.35 6.35 0 1 0 6.35 6.35 6.3575 6.3575 0 0 0-6.35-6.35zm0.41333 10.118c-0.30191 0.050225-0.9017 0.17317-1.2071 0.2009a0.74295 0.74295 0 0 1-0.64943-0.33828 0.79375 0.79375 0 0 1-0.096415-0.72679l1.2001-3.3008h-1.2481a1.4917 1.4917 0 0 1 1.1747-1.3855 4.5951 4.5951 0 0 1 1.2065-0.19975 0.95712 0.95712 0 0 1 0.65001 0.33828 0.79375 0.79375 0 0 1 0.096414 0.72679l-1.2001 3.3008h1.2475a1.4051 1.4051 0 0 1-1.1742 1.3855zm0.38042-6.1491a0.79375 0.79375 0 1 1 0.79375-0.79375 0.79375 0.79375 0 0 1-0.79375 0.79375z" stroke-width=".57727"/>
</svg>
