<svg xmlns="http://www.w3.org/2000/svg" width="48" height="48" viewBox="0 0 22 22"><g transform="translate(0 0)"><path d="M276.346,64.546,273.62,61.82l-5.076,5.119,2.727,2.727Zm0,0" transform="translate(-256.994 -59.172)"/><path d="M210.383,209.347a.643.643,0,0,0,.841.84l3.263-1.688-2.418-2.418Zm0,0" transform="translate(-201.309 -197.221)"/><path d="M412.531,2.914a.643.643,0,0,0,0-.909L410.714.188a.643.643,0,0,0-.909,0L408.253,1.74l2.726,2.726Zm0,0" transform="translate(-390.719)"/><path d="M2.428,133.851H3.07v3.256a.643.643,0,0,0,1.1.454l3.71-3.71h7.488a1.93,1.93,0,0,0,1.928-1.928v-6.38l-2.027,2.027a1.91,1.91,0,0,1-.615.413l-3.679,1.908a2.029,2.029,0,0,1-.842.2A1.9,1.9,0,0,1,9.576,130H5a.643.643,0,1,1,0-1.285H8.252a1.924,1.924,0,0,1,.1-1.295l1.983-3.851a1.757,1.757,0,0,1,.372-.526l2.04-2.04H2.427A1.93,1.93,0,0,0,.5,122.927v9a1.93,1.93,0,0,0,1.928,1.928Zm0,0" transform="translate(-0.5 -115.75)"/></g></svg>