<svg width="48" height="48" version="1.1" viewBox="0 0 12.7 12.7" xmlns="http://www.w3.org/2000/svg">
 <g stroke-width=".42338">
  <path d="m6.3464 4.6701a1.6544 1.6803 0 1 0 1.6544 1.6802 1.6574 1.6832 0 0 0-1.6544-1.6802z"/>
  <path d="m3.5615 6.3328a2.2334 2.2682 0 0 1 0.66799-1.6175 0.55708 0.56577 0 0 0-0.781-0.80684 3.3345 3.3865 0 0 0-0.99988 2.4175 3.3841 3.4369 0 0 0 0.99988 2.4594 0.55708 0.56577 0 0 0 0.78772-0.80002 2.2598 2.2951 0 0 1-0.67471-1.6525z"/>
  <path d="m9.244 3.9114a0.55708 0.56577 0 1 0-0.78772 0.80002 2.2728 2.3083 0 0 1 0.67219 1.6555 2.2334 2.2682 0 0 1-0.66841 1.618 0.55708 0.56577 0 0 0-0.00672 0.80002 0.55414 0.56279 0 0 0 0.78772 0.0068129 3.3374 3.3895 0 0 0 1.0037-2.4209 3.3845 3.4373 0 0 0-1.0007-2.4594z"/>
  <path d="m2.3624 3.1306a0.60077 0.61015 0 0 0 0-0.83842 0.53607 0.54444 0 0 0-0.78772 0 5.8569 5.9483 0 0 0 0 8.1162 0.53649 0.54487 0 0 0 0.78772 0 0.60077 0.61015 0 0 0 0-0.83842 4.649 4.7216 0 0 1 0-6.4394z"/>
  <path d="m11.114 2.2918a0.53607 0.54444 0 0 0-0.78772 0 0.60077 0.61015 0 0 0 0 0.83842 4.5621 4.6333 0 0 1 1.257 3.2197 4.5621 4.6333 0 0 1-1.257 3.2197 0.60077 0.61015 0 0 0 0 0.83842 0.53649 0.54487 0 0 0 0.78772 0 5.7632 5.8531 0 0 0 1.5855-4.0581 5.7414 5.831 0 0 0-1.5855-4.0581z"/>
 </g>
</svg>
