<svg width="48" height="48" version="1.1" viewBox="0 0 12.7 12.7" xmlns="http://www.w3.org/2000/svg">
 <g stroke-width=".57736">
  <path d="m9.2546 3.7461h-0.97495a2.1277 2.1136 0 0 0-2.1254 2.1084l-0.00695 0.52135v0.00518a1.348 1.3391 0 0 1-1.3776 1.3379h-1.3237a2.1277 2.1136 0 0 0-2.1231 2.1101v0.54494h0.74728v-0.54494a1.3793 1.3701 0 0 1 0.74265-1.2148v4.0856h2.2419v-4.2583a2.1219 2.1078 0 0 0 1.2165-0.58177 2.0646 2.0509 0 0 0 0.62621-1.4777l0.00697-0.52135v-0.00231a1.3689 1.3598 0 0 1 0.17377-0.66808l0.55322 0.55128-0.64591 6.9416h3.5597l-0.64591-6.9398 0.5567-0.553a1.3671 1.358 0 0 1 0.17379 0.66924v1.8713h0.74728v-1.8725a2.1277 2.1136 0 0 0-2.1225-2.1124z"/>
  <path d="m8.7668 0a1.6597 1.6486 0 1 0 1.6597 1.6486 1.662 1.6509 0 0 0-1.6597-1.6486z"/>
  <path d="m3.9344 4.6381a1.3619 1.3529 0 1 0 1.3619 1.3529 1.3637 1.3546 0 0 0-1.3619-1.3529z"/>
 </g>
</svg>
