<svg width="48" height="48" version="1.1" viewBox="0 0 12.7 12.7" xmlns="http://www.w3.org/2000/svg">
 <g transform="matrix(.025278 0 0 .025277 -.011951 .091792)">
  <path d="m501.1 237.3c-3.2-7.1-10.3-11.7-18.2-11.7-34.7 0-64.8 7-92.2 21.5-19.8 10.5-38.2 24.8-57.4 44.8-13.9-23-39.1-37.5-66.3-37.5h-84.2c-22.5 0-43.8 5.1-61.8 14.9-43.5 23.5-83.9 61.1-116.9 108.7-5.6 7.9-4.6 18.6 2.2 25.4l86.4 86.4c3.7 3.7 8.8 5.8 14.1 5.8h0.9c5.7-0.3 11-3 14.4-7.4 43.3-53.2 82.5-66.5 232.8-79.1 5.1-0.4 9.8-2.7 13.1-6.5l129.6-144c5.5-5.7 6.8-14.1 3.5-21.3zm-320.4 74.7c-11 0-19.9 8.9-19.9 19.9s8.9 19.9 19.9 19.9h144c4.8 0 9.6-1.8 13.3-5.2l0.9-0.8c0.3-0.3 0.5-0.5 0.7-0.8l0.4-0.5c25.1-30.2 51.2-58.4 91.4-71.4l-87.4 97.2c-133.6 11.5-188.7 24.6-238.1 76.5l-59.4-59.4c27.6-36.2 59.8-64.9 93.6-83.2 12.1-6.6 26.9-10 42.8-10h84.1c13.2 0 25.3 6.9 32 17.8z"/>
  <path d="m296 204 2.6 2c8.7 6.7 17.6 13.7 27 21.3 3.5 2.9 8 4.4 12.5 4.4s8.9-1.6 12.4-4.4c9.3-7.4 19-15.1 29.6-23.4 26-20.2 48.4-37.7 64.5-55.1 19.4-21.1 28.5-41.3 28.5-63.6 0-20.7-7.6-40-21.5-54.4-14.4-14.9-34.2-23.2-55.9-23.2-22.6 0-42.4 9.2-57.6 26.7-15.2-17.5-35-26.7-57.6-26.7-21.7 0-41.6 8.2-55.9 23.2-13.9 14.4-21.5 33.8-21.5 54.4 0 22.2 9 42.4 28.4 63.6 16.3 17.8 39.7 36 64.5 55.2zm-15.5-156.5c28.7 0 38.4 31.6 38.5 32 2.5 8.5 10.2 14.1 19.1 14.1 8.7 0 16.6-5.8 19.1-14.2 0.5-1.7 10.7-31.9 38.5-31.9 21.5 0 37.7 16.3 37.7 37.8 0 26.9-30.9 51-77.6 87.4l-3.8 2.9c-4.5 3.5-9.2 7.1-13.9 10.9-2.4-1.9-4.7-3.7-7-5.5-3.6-2.8-7.1-5.6-10.6-8.3-46.7-36.4-77.6-60.4-77.6-87.4-0.1-10.4 3.7-20 10.6-26.9 7-7.1 16.5-10.9 27-10.9z"/>
 </g>
</svg>
