<svg width="48" height="48" version="1.1" viewBox="0 0 12.7 12.7" xmlns="http://www.w3.org/2000/svg">
 <rect x="-1.6073" y="3.4053" width="14.288" height="11.112" fill="none" stroke-width=".26458"/>
 <g transform="matrix(.57683 0 0 .56811 1.7809e-7 -30.951)">
  <g transform="translate(2.661,57.142)">
   <path transform="translate(-61.873,-57.142)" d="m65.892 57.142a4.269 4.269 0 1 0 4.02 4.258 4.151 4.151 0 0 0-4.02-4.258z"/>
  </g>
  <g transform="translate(12.371,57.752)">
   <path transform="translate(-287.64 -71.321)" d="m291.08 71.321h-0.027a3.334 3.334 0 0 0-2.446 1.106 3.806 3.806 0 0 0 0.042 5.132 3.335 3.335 0 0 0 2.436 1.065h0.028a3.334 3.334 0 0 0 2.446-1.106 3.742 3.742 0 0 0 0.974-2.574 3.561 3.561 0 0 0-3.453-3.623z"/>
  </g>
  <g transform="translate(11.611,65.753)">
   <path transform="translate(-269.96 -257.36)" d="m274.34 257.36h-0.337a6.011 6.011 0 0 0-4.044 1.56 7.76 7.76 0 0 1 3.03 5.757h7.38v-1.285a6.039 6.039 0 0 0-6.029-6.032z"/>
  </g>
  <g transform="translate(0,66.999)">
   <path transform="translate(0 -286.32)" d="m13.348 292.39a6.478 6.478 0 0 0-6.466-6.071h-0.4a6.48 6.48 0 0 0-6.482 6.482v0.769h13.361v-0.769q0-0.208-0.013-0.411z"/>
  </g>
 </g>
</svg>
