<svg width="60" height="60" version="1.1" viewBox="0 0 15.875 15.875" xmlns="http://www.w3.org/2000/svg">
 <path d="m10.505 10.147c-0.15718 0.70614-0.57632 1.2815-1.1526 1.6477-0.62871 0.36614-1.4146 0.4446-2.2005 0.20923s-1.7028-1.02-1.9123-2.0138c-0.13098-0.70614 0.15718-1.3861 0.86448-1.9876 1.5456-1.2554 1.9647-2.5107 1.9647-3.5045 1.3098 1.1507 2.9864 3.1384 2.4363 5.6491zm5.3703-2.1969c0 4.3676-3.5627 7.9244-7.9375 7.9244-4.3748 0-7.9375-3.5568-7.9375-7.9244 0-4.3676 3.5627-7.9506 7.9375-7.9506 4.3748 0 7.9375 3.5568 7.9375 7.9506zm-8.5924-5.6491c-0.26196-0.15692-0.60252-0.10461-0.81209 0.13077s-0.20957 0.57537-0.026198 0.81075c0.13098 0.18307 1.1788 1.8046-1.1526 3.7399-1.1002 0.88921-1.5718 2.04-1.336 3.243 0.26196 1.3338 1.4408 2.5892 2.8292 3.0076 1.1526 0.33999 2.3053 0.23538 3.2484-0.33999 0.91687-0.52306 1.5456-1.4123 1.7814-2.4846 1.0217-4.9168-4.2962-7.9767-4.532-8.1075z" stroke-width=".26175"/>
</svg>
