<svg width="48" height="48" version="1.1" viewBox="0 0 12.7 12.7" xmlns="http://www.w3.org/2000/svg">
 <g stroke-width=".73577">
  <path d="m7.5476 5.9628-6.86-5.8596a0.38422 0.38392 0 0 0-0.44826-0.0456 0.49904 0.49865 0 0 0-0.23922 0.43614v11.715a0.50052 0.50013 0 0 0 0.23701 0.43614 0.39305 0.39275 0 0 0 0.19211 0.051484 0.396 0.39569 0 0 0 0.25762-0.09782l6.86-5.8573a0.5307 0.53028 0 0 0 0-0.78108z"/>
  <path d="m12.079 0.0032475h-1.2454a0.56823 0.56779 0 0 0-0.62417 0.4913v11.714a0.56823 0.56779 0 0 0 0.6227 0.48836h1.2454a0.56823 0.56779 0 0 0 0.6227-0.48836v-11.714a0.56823 0.56779 0 0 0-0.62123-0.4913z"/>
 </g>
</svg>
