<svg width="48" height="48" version="1.1" viewBox="0 0 12.7 12.7" xmlns="http://www.w3.org/2000/svg">
 <g stroke-width=".54888">
  <path d="m11.203 12.718h-9.7155a1.4173 1.4171 0 0 1-1.4271-1.427v-7.6839a1.4173 1.4171 0 0 1 1.4271-1.427h1.8663a0.41991 0.41987 0 0 1 0.16467 0.82328h-2.0309a0.63398 0.63392 0 0 0-0.65868 0.65862v7.629a0.63398 0.63392 0 0 0 0.65868 0.65862h9.7155a0.63398 0.63392 0 0 0 0.65868-0.65862v-4.5006a0.38423 0.3842 0 0 1 0.76846 0v4.5006a1.3838 1.3837 0 0 1-1.4271 1.427z"/>
  <path d="m3.5733 8.4916h-0.10978a0.41113 0.41109 0 0 1-0.32934-0.3842v-0.82328a5.1536 5.1532 0 0 1 5.1597-5.1592h0.10978v-1.7014a0.41277 0.41274 0 0 1 0.27445-0.3842 0.42704 0.42701 0 0 1 0.43912 0.10978l3.4032 3.5675a0.36667 0.36663 0 0 1 0 0.54885l-3.4032 3.5675a0.42704 0.42701 0 0 1-0.43912 0.10978c-0.16467-0.054889-0.21956-0.21954-0.27445-0.3842v-1.7014h-0.60379a4.3912 4.3908 0 0 0-3.8972 2.4149c0 0.10978-0.16467 0.21954-0.32934 0.21954zm4.7754-5.4885a4.423 4.4226 0 0 0-4.3363 3.7871 5.1152 5.1148 0 0 1 3.8423-1.7014h1.0429a0.37545 0.37541 0 0 1 0.38423 0.3842v1.0977l2.4701-2.5796-2.4701-2.5796v1.0977a0.37545 0.37541 0 0 1-0.38423 0.3842z"/>
 </g>
</svg>
