<svg width="48" height="48" version="1.1" viewBox="0 0 12.7 12.7" xmlns="http://www.w3.org/2000/svg">
 <g stroke-width=".49705">
  <path d="m5.3372 12.723a1.9902 1.9981 0 0 1-1.9843-1.9922 0.39686 0.39843 0 1 1 0.79371 0 1.1906 1.1953 0 1 0 2.3811 0 0.39686 0.39843 0 0 1 0.44646-0.34863 0.33931 0.34066 0 0 1 0.34725 0.34863 1.9902 1.9981 0 0 1-1.9843 1.9922z"/>
  <path d="m9.7026 11.129h-8.7308a0.94253 0.94627 0 0 1-0.94253-0.94627 0.80462 0.80782 0 0 1 0.34725-0.69725l0.04961-0.049803a3.594 3.6083 0 0 0 1.2402-2.6894v-1.4941a3.724 3.7388 0 0 1 2.8276-3.6357 0.40926 0.41088 0 1 1 0.19843 0.79686 2.9204 2.932 0 0 0-2.2323 2.8388v1.4941a4.3158 4.3329 0 0 1-1.5378 3.3369 0.17313 0.17382 0 0 0-0.04961 0.09961 0.15825 0.15887 0 0 0 0.14881 0.14941h8.7308a0.13146 0.13198 0 0 0 0.14883-0.14941c0-0.0498 0-0.0498-0.04961-0.0498a4.5787 4.5969 0 0 1-1.141-1.4443 0.39994 0.40153 0 1 1 0.69449-0.39843 0.049607 0.049804 0 0 0 0.04961 0.049803 2.8683 2.8797 0 0 0 0.89292 1.1455l0.04961 0.049803a0.89292 0.89647 0 0 1 0.09922 1.2949 1.2164 1.2212 0 0 1-0.79371 0.29882z"/>
  <path d="m9.3058 6.8959a3.4229 3.4365 0 1 1 3.4229-3.4365 3.4621 3.4758 0 0 1-3.4229 3.4365zm0-6.1259a2.7234 2.7342 0 0 0-2.6788 2.6396 2.6541 2.6646 0 0 0 5.3079 0.049807 2.6574 2.668 0 0 0-2.6292-2.6894z"/>
  <path d="m10.744 3.8081h-2.9268a0.39686 0.39843 0 0 1 0-0.79686h2.9268a0.42662 0.42831 0 0 1 0.39686 0.39843 0.36511 0.36656 0 0 1-0.39686 0.39843z"/>
  <path d="m9.3058 5.3022a0.42662 0.42831 0 0 1-0.39686-0.39843v-2.9384a0.39686 0.39843 0 1 1 0.79371 0v2.9384a0.3914 0.39295 0 0 1-0.39685 0.39843z"/>
 </g>
</svg>
