<svg xmlns="http://www.w3.org/2000/svg" viewBox="0 0 48 48" fill-rule="evenodd" clip-rule="evenodd" visibility="visible"><path d="M 23.899 0 C 37.088 0 47.798 10.696 47.798 23.903 C 47.798 37.094 37.102 47.805 23.899 47.805 C 10.71 47.805 0 37.108 0 23.903 C 0 10.711 10.695 0 23.899 0 M 29.075 10.668 C 29.519 14.425 31.613 16.661 35.24 16.891 L 35.24 21.107 C 33.131 21.308 31.283 20.619 29.132 19.329 L 29.132 27.214 C 29.132 37.251 18.193 40.378 13.806 33.193 C 10.982 28.577 12.717 20.447 21.777 20.131 L 21.777 24.59 C 21.089 24.705 20.358 24.877 19.685 25.106 C 17.663 25.78 16.531 27.071 16.846 29.323 C 17.462 33.639 25.376 34.914 24.716 26.484 L 24.716 10.682 L 29.089 10.682"/></svg>