<svg width="60" height="60" version="1.1" viewBox="0 0 15.875 15.875" xmlns="http://www.w3.org/2000/svg">
 <path d="m7.9375 0a7.9375 7.9375 0 0 0-7.9375 7.9375 7.9375 7.9375 0 0 0 7.9375 7.9375 7.9375 7.9375 0 0 0 7.9375-7.9375 7.9375 7.9375 0 0 0-7.9375-7.9375zm-0.03505 3.923a0.58162 0.58162 0 0 1 0.01393 0 0.60785 0.60785 0 0 1 0.43228 0.1757l3.0867 3.0917a0.58899 0.58899 0 0 1 0.18064 0.43274 0.58162 0.58162 0 0 1-0.1757 0.4269l-0.35634 0.35634a0.58968 0.58968 0 0 1-0.43185 0.18064 0.56437 0.56437 0 0 1-0.4278-0.18064l-2.3079-2.303-2.3074 2.3016a0.5646 0.5646 0 0 1-0.42734 0.18064 0.5646 0.5646 0 0 1-0.4278-0.18064l-0.3559-0.3559a0.56437 0.56437 0 0 1-0.18064-0.42734 0.58945 0.58945 0 0 1 0.18064-0.43139l3.0913-3.0917a0.58162 0.58162 0 0 1 0.41342-0.1757zm-0.069201 6.3684c0.12731 0 0.24565 0.01989 0.35454 0.05977 0.1089 0.03988 0.20262 0.09669 0.28085 0.17031 0.079759 0.07363 0.14155 0.16333 0.18603 0.26916 0.04448 0.1043 0.066956 0.22148 0.066956 0.35185 0 0.12884-0.02247 0.24717-0.066956 0.35454-0.044483 0.10583-0.10628 0.19697-0.18603 0.27367-0.078224 0.07516-0.17195 0.13339-0.28085 0.1748-0.1089 0.04142-0.22724 0.06201-0.35454 0.06201-0.1273 0-0.24519-0.0206-0.3541-0.06201-0.10737-0.04142-0.20109-0.09965-0.28085-0.1748-0.078225-0.07669-0.13931-0.16783-0.18379-0.27367-0.04448-0.10737-0.066956-0.22571-0.066956-0.35454 0-0.13038 0.022473-0.24756 0.066956-0.35185 0.04448-0.10583 0.10556-0.19554 0.18379-0.26916 0.079759-0.07363 0.17348-0.13043 0.28085-0.17031 0.1089-0.03988 0.22679-0.05976 0.3541-0.05976zm-2.5784 0.04358h1.3139v0.33611h-0.46014v1.2928h-0.39363v-1.2928h-0.46014zm4.073 0h0.5981c0.088962 0 0.1718 9e-3 0.2485 0.02741 0.07823 0.01687 0.14591 0.04549 0.20266 0.08537 0.05829 0.03835 0.1035 0.08971 0.13571 0.15413 0.03375 0.06289 0.05077 0.141 0.05077 0.23456 0 0.0951-0.01775 0.1758-0.05303 0.24176-0.03528 0.06442-0.08308 0.1165-0.1429 0.15638-0.05982 0.03988-0.12848 0.06922-0.20671 0.08763-0.07823 0.01841-0.15964 0.02741-0.24399 0.02741h-0.19546v0.61427h-0.39363v-1.6289zm-1.4946 0.31051c-0.069022 0-0.13153 0.01302-0.18828 0.0391-0.056752 0.02454-0.10598 0.05932-0.14739 0.1038-0.041413 0.04295-0.073605 0.09502-0.096612 0.15638-0.021472 0.06136-0.032353 0.12716-0.032353 0.19772 0 0.07363 0.011593 0.14202 0.034601 0.20491 0.023007 0.06136 0.054486 0.11414 0.094366 0.15862 0.041413 0.04448 0.090639 0.07997 0.14739 0.10605 0.056752 0.02454 0.11926 0.03684 0.18828 0.03684 0.069022 0 0.13198-0.0123 0.18873-0.03684 0.056752-0.02608 0.10598-0.06157 0.14739-0.10605s0.073605-0.09727 0.096612-0.15862c0.023007-0.06289 0.034601-0.13128 0.034601-0.20491 0-0.07056-0.011593-0.13637-0.034601-0.19772-0.023007-0.06136-0.055199-0.11343-0.096612-0.15638-0.039878-0.04448-0.089105-0.07926-0.14739-0.1038-0.056752-0.02608-0.11971-0.0391-0.18873-0.0391zm1.8882 0.0072v0.3842h0.16536c0.036809 0 0.072304-0.0033 0.10605-0.0094 0.033748-0.0062 0.0638-0.01702 0.089872-0.03236 0.02761-0.01534 0.04892-0.03523 0.06426-0.05977 0.01534-0.02607 0.02292-0.05827 0.02292-0.09661 0-0.03835-0.0076-0.06983-0.02292-0.09437-0.01534-0.02454-0.03594-0.04371-0.06201-0.05752-0.02607-0.0138-0.05613-0.02281-0.089872-0.02741-0.032209-0.0046-0.065826-0.0068-0.10111-0.0068h-0.17255z" stroke-width=".23007"/>
</svg>
