<svg id="Group_212" data-name="Group 212" xmlns="http://www.w3.org/2000/svg" width="49" height="49" viewBox="0 0 49 49">
  <g id="Ellipse_5" data-name="Ellipse 5" fill="none" stroke="#009dd1" stroke-width="1.5">
    <circle cx="24.5" cy="24.5" r="24.5" stroke="none"/>
    <circle cx="24.5" cy="24.5" r="23.75" fill="none"/>
  </g>
  <path id="Path_323" data-name="Path 323" d="M5.55,4.38V10H3.84V4.38h-2V2.92H7.55V4.38ZM16.91,6.43a3.948,3.948,0,0,1-.29,1.535,3.5,3.5,0,0,1-.8,1.19,3.582,3.582,0,0,1-1.225.765,4.513,4.513,0,0,1-3.075,0,3.592,3.592,0,0,1-1.22-.765,3.5,3.5,0,0,1-.8-1.19A3.948,3.948,0,0,1,9.2,6.43a3.9,3.9,0,0,1,.29-1.535,3.361,3.361,0,0,1,.8-1.165,3.586,3.586,0,0,1,1.22-.74,4.676,4.676,0,0,1,3.075,0,3.577,3.577,0,0,1,1.225.74,3.361,3.361,0,0,1,.8,1.165A3.9,3.9,0,0,1,16.91,6.43Zm-1.83,0a2.429,2.429,0,0,0-.15-.86,2.049,2.049,0,0,0-.415-.685,1.916,1.916,0,0,0-.64-.45,2.026,2.026,0,0,0-.825-.165,1.968,1.968,0,0,0-1.46.615,1.946,1.946,0,0,0-.415.685,2.654,2.654,0,0,0,.005,1.745,2.1,2.1,0,0,0,.415.7,1.9,1.9,0,0,0,.635.455,2.12,2.12,0,0,0,1.64,0,1.949,1.949,0,0,0,.64-.455,2.052,2.052,0,0,0,.42-.7A2.529,2.529,0,0,0,15.08,6.43ZM24.91,5.1a2.172,2.172,0,0,1-.23,1.045,1.89,1.89,0,0,1-.62.685,2.736,2.736,0,0,1-.9.38,4.613,4.613,0,0,1-1.06.12h-.85V10H19.54V2.92h2.6a4.88,4.88,0,0,1,1.085.115,2.559,2.559,0,0,1,.88.37,1.793,1.793,0,0,1,.59.67A2.211,2.211,0,0,1,24.91,5.1Zm-1.71.01a.762.762,0,0,0-.1-.41.7.7,0,0,0-.27-.25,1.158,1.158,0,0,0-.385-.12A3.218,3.218,0,0,0,22,4.3h-.75V5.97h.72a2.568,2.568,0,0,0,.46-.04,1.235,1.235,0,0,0,.395-.14.75.75,0,0,0,.275-.265A.789.789,0,0,0,23.2,5.11Z" transform="translate(11 29.826)" fill="#009dd1"/>
  <g id="down" transform="translate(11.387 136.544) rotate(-90)">
    <path id="Path_89" data-name="Path 89" d="M125.839,12.26,113.791.213a.723.723,0,0,0-1.022,1.022L124.3,12.769,112.769,24.3a.725.725,0,0,0,.508,1.236.705.705,0,0,0,.508-.214l12.048-12.048A.719.719,0,0,0,125.839,12.26Z" transform="translate(0)" fill="#009dd1"/>
  </g>
</svg>
