<svg width="48" height="48" version="1.1" viewBox="0 0 48 48" xmlns="http://www.w3.org/2000/svg">
 <path d="m24 0a24 24 0 1 0 24 24 24 24 0 0 0-24-24zm10.96 18.714q0.01524 0.35428 0.01524 0.71238a15.568 15.568 0 0 1-15.674 15.674 15.594 15.594 0 0 1-8.4438-2.4762 11.206 11.206 0 0 0 1.3143 0.07619 11.048 11.048 0 0 0 6.8419-2.3581 5.5238 5.5238 0 0 1-5.1429-3.8267 5.4914 5.4914 0 0 0 2.4876-0.09524 5.5105 5.5105 0 0 1-4.419-5.4v-0.07048a5.4705 5.4705 0 0 0 2.4952 0.68953 5.5143 5.5143 0 0 1-1.7143-7.3543 15.642 15.642 0 0 0 11.356 5.7562 5.5124 5.5124 0 0 1 9.3886-5.0248 11.048 11.048 0 0 0 3.499-1.3333 5.5238 5.5238 0 0 1-2.4229 3.0476 10.989 10.989 0 0 0 3.1733-0.87048 11.196 11.196 0 0 1-2.7486 2.8571z" stroke-width="1.9048"/>
</svg>
