<svg width="48" height="48" version="1.1" viewBox="0 0 48 48" xmlns="http://www.w3.org/2000/svg">
 <path d="m21.013 28.499 7.8095-4.4971-7.8095-4.4971z" stroke-width="1.9048"/>
 <path d="m24 0a24 24 0 1 0 24 24 24 24 0 0 0-24-24zm14.998 24.027a39.619 39.619 0 0 1-0.61714 7.2152 3.7581 3.7581 0 0 1-2.6438 2.6438 91.238 91.238 0 0 1-11.737 0.61714 87.964 87.964 0 0 1-11.737-0.6419 3.7581 3.7581 0 0 1-2.6438-2.6438 39.442 39.442 0 0 1-0.61524-7.2171 39.589 39.589 0 0 1 0.61714-7.2152 3.8343 3.8343 0 0 1 2.6438-2.6667 91.238 91.238 0 0 1 11.735-0.61714 87.777 87.777 0 0 1 11.737 0.6419 3.7581 3.7581 0 0 1 2.6438 2.6438 37.594 37.594 0 0 1 0.61714 7.2381z" stroke-width="1.9048"/>
</svg>
