<svg width="48" height="48" version="1.1" viewBox="0 0 12.7 12.7" xmlns="http://www.w3.org/2000/svg">
 <g transform="matrix(.4483 0 0 .43634 -120.07 39.307)">
  <g transform="translate(278.38 -84.435)">
   <path class="c" transform="translate(-130.2,-67.8)" d="m133.86 67.8a3.658 3.658 0 1 0 3.658 3.658 3.665 3.665 0 0 0-3.658-3.658z"/>
  </g>
  <g transform="translate(273.41 -86.447)">
   <path class="c" transform="translate(-68.399,-41.237)" d="m70.861 46.869a4.938 4.938 0 0 1 1.477-3.522 1.232 1.232 0 0 0-1.727-1.757 7.373 7.373 0 0 0-2.211 5.264 7.484 7.484 0 0 0 2.212 5.355 1.232 1.232 0 1 0 1.742-1.742 5 5 0 0 1-1.493-3.598z"/>
  </g>
  <g transform="translate(286.34 -86.449)">
   <path class="c" transform="translate(-231.6,-41.2)" d="m233.7 41.564a1.232 1.232 0 0 0-1.742 1.742 5.026 5.026 0 0 1 1.484 3.605 4.938 4.938 0 0 1-1.477 3.522 1.232 1.232 0 0 0-0.015 1.742 1.225 1.225 0 0 0 1.742 0.015 7.38 7.38 0 0 0 2.219-5.271 7.484 7.484 0 0 0-2.211-5.355z"/>
  </g>
  <g transform="translate(268,-89.994)">
   <path class="c" transform="translate(-.025)" d="m5.249 2.207a1.328 1.328 0 0 0 0-1.826 1.186 1.186 0 0 0-1.742 0 12.952 12.952 0 0 0 0 17.672 1.186 1.186 0 0 0 1.742 0 1.328 1.328 0 0 0 0-1.826 10.28 10.28 0 0 1 0-14.02z"/>
  </g>
  <g transform="translate(290.47 -89.994)">
   <path class="c" transform="translate(-283.1)" d="m285.2 0.381a1.186 1.186 0 0 0-1.742 0 1.328 1.328 0 0 0 0 1.826 10.089 10.089 0 0 1 2.78 7.01 10.089 10.089 0 0 1-2.78 7.01 1.328 1.328 0 0 0 0 1.826 1.186 1.186 0 0 0 1.742 0 12.744 12.744 0 0 0 3.507-8.836 12.7 12.7 0 0 0-3.507-8.836z"/>
  </g>
 </g>
</svg>
