<svg width="48" height="48" version="1.1" viewBox="0 0 12.7 12.7" xmlns="http://www.w3.org/2000/svg">
 <g transform="matrix(.56736 0 0 .58426 .0010721 .010775)">
  <g transform="translate(0,9.837)">
   <path class="c" transform="translate(0 -232.54)" d="m15.086 240.47c-1.562 0.139-2.832 0.283-3.9 0.457-3.241 0.529-4.551 1.429-6.044 3.264a0.653 0.653 0 0 1-0.97 0.039l-3.978-4.02a0.657 0.657 0 0 1-0.08-0.836 14.24 14.24 0 0 1 1.657-1.977 13.828 13.828 0 0 1 3.6-2.933 4.973 4.973 0 0 1 2.408-0.613h3.892a2.623 2.623 0 0 1 2.515 1.878 0.574 0.574 0 0 1-0.5 0.742h-5.762a0.665 0.665 0 0 0-0.67 0.635 0.649 0.649 0 0 0 0.655 0.676h6.555a0.7 0.7 0 0 0 0.511-0.236 16.988 16.988 0 0 1 2.49-2.641c0.987-0.831 3.357-2.367 4.253-2.367a0.652 0.652 0 0 1 0.485 1.088l-5.943 6.555a0.639 0.639 0 0 1-0.446 0.223z"/>
  </g>
  <path class="c" transform="translate(-201.78 -7.435)" d="m216.9 8.8a3.252 3.252 0 0 1 5.9 1.92c0 2.157-2.163 3.673-4.136 5.21-2.081 1.622-1.452 1.617-3.527 0-2.173-1.69-4.137-3.125-4.137-5.207a3.251 3.251 0 0 1 5.9-1.923z"/>
 </g>
</svg>
