<?xml version="1.0" encoding="utf-8"?>
<!-- Generator: Adobe Illustrator 24.1.3, SVG Export Plug-In . SVG Version: 6.00 Build 0)  -->
<svg version="1.1" id="Layer_1" xmlns="http://www.w3.org/2000/svg" xmlns:xlink="http://www.w3.org/1999/xlink" x="0px" y="0px"
	 viewBox="0 0 360 72" style="enable-background:new 0 0 360 72;" xml:space="preserve">
<g>
	<g>
		<path d="M76,52.9v-33h8V46h12.8v6.9C96.8,52.9,76,52.9,76,52.9z"/>
		<path d="M109.3,22.3c0,0.6-0.1,1.1-0.3,1.6c-0.2,0.5-0.5,1-0.9,1.3s-0.8,0.7-1.4,0.9
			c-0.5,0.2-1.1,0.3-1.7,0.3c-1.2,0-2.3-0.4-3.1-1.2c-0.8-0.8-1.3-1.8-1.3-3c0-0.6,0.1-1.1,0.3-1.6s0.5-1,0.9-1.3s0.9-0.7,1.4-0.9
			s1.1-0.4,1.7-0.4c0.6,0,1.2,0.1,1.7,0.3c0.5,0.2,1,0.5,1.4,0.9c0.4,0.4,0.7,0.8,0.9,1.3C109.2,21.2,109.3,21.7,109.3,22.3z
			 M101.1,52.9V29.7h7.6v23.2L101.1,52.9L101.1,52.9z"/>
		<path d="M130.9,64.1V50.4h-0.1c-0.8,1-1.8,1.8-3,2.3s-2.6,0.9-4,0.9c-1.8,0-3.3-0.3-4.7-1
			c-1.4-0.7-2.5-1.6-3.4-2.7c-0.9-1.1-1.7-2.5-2.1-3.9c-0.5-1.5-0.8-3-0.8-4.7s0.3-3.2,0.8-4.6c0.5-1.5,1.2-2.8,2.2-3.9
			c0.9-1.1,2.1-2,3.4-2.7c1.3-0.6,2.9-1,4.5-1c1.7,0,3.2,0.4,4.5,1c1.3,0.7,2.2,1.5,3,2.5h0.1v-2.8h7.2v34.4L130.9,64.1L130.9,64.1z
			 M131.2,41.3c0-0.8-0.1-1.5-0.4-2.2c-0.3-0.7-0.6-1.3-1.1-1.9s-1.1-1-1.8-1.3c-0.7-0.3-1.5-0.5-2.3-0.5c-0.9,0-1.7,0.2-2.4,0.5
			c-0.7,0.3-1.3,0.8-1.7,1.3c-0.5,0.5-0.8,1.2-1.1,1.9s-0.3,1.5-0.3,2.2c0,0.8,0.1,1.5,0.3,2.2c0.2,0.7,0.6,1.4,1.1,1.9
			c0.5,0.6,1,1,1.7,1.3s1.5,0.5,2.4,0.5c0.9,0,1.7-0.2,2.3-0.5c0.7-0.3,1.3-0.8,1.8-1.3c0.5-0.6,0.9-1.2,1.1-1.9
			C131.1,42.8,131.2,42,131.2,41.3z"/>
		<path d="M159.1,52.9v-3.2H159c-0.3,0.5-0.6,1-1.1,1.5c-0.4,0.5-1,0.9-1.6,1.2c-0.6,0.3-1.3,0.6-2,0.8
			s-1.5,0.3-2.3,0.3c-1.6,0-2.9-0.3-3.9-0.8s-1.9-1.3-2.6-2.2c-0.7-0.9-1.1-1.9-1.4-3c-0.3-1.1-0.4-2.3-0.4-3.5V29.7h7.7v12.6
			c0,0.7,0.1,1.3,0.1,1.9s0.3,1.1,0.5,1.6c0.3,0.5,0.6,0.8,1.1,1.1c0.4,0.3,1,0.4,1.7,0.4c1.3,0,2.4-0.5,3.1-1.5s1.1-2.2,1.1-3.5
			V29.7h7.6v23.2L159.1,52.9L159.1,52.9z"/>
		<path d="M180.2,22.3c0,0.6-0.1,1.1-0.4,1.6c-0.2,0.5-0.5,1-0.9,1.3s-0.9,0.7-1.4,0.9
			c-0.5,0.2-1.1,0.3-1.7,0.3c-1.2,0-2.3-0.4-3.1-1.2c-0.8-0.8-1.3-1.8-1.3-3c0-0.6,0.1-1.1,0.3-1.6s0.5-1,0.9-1.3s0.9-0.7,1.4-0.9
			s1.1-0.4,1.7-0.4c0.6,0,1.2,0.1,1.7,0.3s1,0.5,1.4,0.9c0.4,0.4,0.7,0.8,0.9,1.3C180.1,21.2,180.2,21.7,180.2,22.3z M172,52.9V29.7
			h7.6v23.2L172,52.9L172,52.9z"/>
		<path d="M202.6,52.9v-3h-0.1c-0.8,1.2-1.8,2.1-3.2,2.7s-2.9,1-4.4,1c-1.7,0-3.3-0.3-4.7-1
			c-1.4-0.7-2.5-1.6-3.5-2.7c-0.9-1.1-1.7-2.5-2.2-3.9c-0.5-1.5-0.8-3-0.8-4.7s0.3-3.2,0.8-4.6c0.5-1.5,1.2-2.8,2.2-3.9
			c0.9-1.1,2.1-2,3.4-2.7c1.4-0.6,2.9-1,4.5-1c1.7,0,3.1,0.3,4.3,1c1.2,0.6,2.1,1.4,2.8,2.1h0.1V17.7h7.6v35.2L202.6,52.9
			L202.6,52.9z M202.3,41.3c0-0.8-0.1-1.5-0.4-2.2c-0.3-0.7-0.6-1.3-1.1-1.9s-1.1-1-1.8-1.3c-0.7-0.3-1.5-0.5-2.3-0.5
			c-0.9,0-1.7,0.2-2.4,0.5c-0.7,0.3-1.3,0.8-1.7,1.3s-0.8,1.2-1.1,1.9s-0.4,1.5-0.4,2.2c0,0.8,0.1,1.5,0.4,2.2
			c0.2,0.7,0.6,1.4,1.1,1.9c0.5,0.6,1,1,1.7,1.3c0.7,0.3,1.5,0.5,2.4,0.5c0.9,0,1.6-0.2,2.3-0.5c0.7-0.3,1.3-0.8,1.8-1.3
			c0.5-0.6,0.9-1.2,1.1-1.9C202.2,42.8,202.3,42,202.3,41.3z"/>
		<path d="M244.1,47.8c-1.3,1.8-3,3.2-5.1,4.3c-2.1,1.1-4.6,1.7-7.5,1.7c-2.5,0-4.8-0.4-7-1.3s-4-2-5.5-3.6
			s-2.7-3.4-3.6-5.5s-1.3-4.5-1.3-7c0-2.6,0.4-4.9,1.3-7.1s2.1-4,3.7-5.4c1.6-1.5,3.4-2.7,5.6-3.5c2.1-0.8,4.5-1.3,7-1.3
			c1.1,0,2.3,0.1,3.4,0.3s2.3,0.5,3.3,1c1.1,0.4,2,1,2.9,1.6c0.9,0.6,1.6,1.4,2.2,2.2l-3.6,2.8c-0.8-1.1-1.9-2-3.4-2.8
			s-3.1-1.1-4.8-1.1c-1.9,0-3.7,0.4-5.2,1c-1.5,0.7-2.9,1.6-3.9,2.9c-1.1,1.2-1.9,2.6-2.5,4.2c-0.6,1.6-0.9,3.3-0.9,5.1
			c0,1.9,0.3,3.6,0.9,5.2c0.6,1.6,1.4,3,2.5,4.2s2.4,2.1,3.9,2.8s3.3,1,5.1,1c1.9,0,3.6-0.4,5.1-1.1s2.8-1.8,3.8-3.3L244.1,47.8z"/>
		<path d="M252.9,34.2c0.5-1.1,1.4-2,2.7-2.8c1.3-0.8,2.7-1.2,4.3-1.2c1.4,0,2.7,0.2,3.7,0.7
			c1,0.5,1.9,1.1,2.6,1.9c0.7,0.8,1.2,1.8,1.5,2.8c0.3,1.1,0.5,2.3,0.5,3.5v13.7h-4.4V40.7c0-0.9-0.1-1.8-0.2-2.6
			c-0.1-0.8-0.4-1.5-0.8-2.2c-0.4-0.6-0.9-1.1-1.5-1.5c-0.6-0.4-1.5-0.6-2.5-0.6c-1.7,0-3.2,0.7-4.3,2c-1.1,1.3-1.7,3.1-1.7,5.3
			v11.7h-4.4V17.7h4.4L252.9,34.2C252.8,34.2,252.9,34.2,252.9,34.2z"/>
		<path d="M288.3,52.9c-0.1-0.6-0.1-1.2-0.1-1.9c0-0.7,0-1.3,0-1.8h-0.1c-0.6,1.2-1.5,2.2-2.8,3
			c-1.3,0.8-2.8,1.2-4.4,1.2c-1.4,0-2.7-0.2-3.7-0.7c-1-0.5-1.9-1.1-2.6-1.9c-0.7-0.8-1.2-1.8-1.5-2.9c-0.3-1.1-0.5-2.3-0.5-3.5
			V30.8h4.4V43c0,0.9,0.1,1.8,0.2,2.6c0.1,0.8,0.4,1.5,0.8,2.2s0.9,1.1,1.5,1.5c0.6,0.4,1.5,0.6,2.5,0.6c1.8,0,3.2-0.7,4.3-2
			s1.6-3.1,1.6-5.3V30.8h4.4v17.3c0,0.6,0,1.3,0,2.3c0,0.9,0.1,1.8,0.1,2.5L288.3,52.9L288.3,52.9z"/>
		<path d="M297.5,33.3c0-0.9-0.1-1.8-0.1-2.5h4.1c0.1,0.6,0.1,1.2,0.1,1.9c0,0.7,0,1.3,0,1.8h0.1
			c0.6-1.3,1.5-2.3,2.7-3.1c1.2-0.8,2.5-1.2,4-1.2c0.7,0,1.3,0.1,1.7,0.2l-0.2,4.1c-0.6-0.2-1.3-0.2-2-0.2c-1.1,0-2,0.2-2.8,0.6
			c-0.8,0.4-1.4,0.9-1.9,1.6c-0.5,0.7-0.9,1.4-1.1,2.3s-0.4,1.8-0.4,2.7v11.6h-4.4V35.6C297.6,35,297.6,34.2,297.5,33.3z"/>
		<path d="M329.2,36.4c-0.5-0.7-1.2-1.3-2.1-1.8s-1.9-0.7-3-0.7c-1.1,0-2.2,0.2-3,0.7c-0.9,0.4-1.6,1-2.3,1.8
			s-1.1,1.6-1.4,2.5c-0.3,1-0.5,2-0.5,3c0,1.1,0.2,2.1,0.5,3s0.8,1.8,1.4,2.5c0.6,0.7,1.4,1.3,2.3,1.8s1.9,0.7,3.1,0.7
			c1.1,0,2.1-0.2,3-0.7c0.9-0.4,1.7-1,2.3-1.8l2.9,2.7c-0.9,1.1-2.1,1.9-3.5,2.5s-3,0.9-4.8,0.9c-1.7,0-3.3-0.3-4.7-0.8
			c-1.5-0.6-2.7-1.3-3.8-2.3c-1.1-1-1.9-2.2-2.5-3.7c-0.6-1.4-0.9-3-0.9-4.8c0-1.7,0.3-3.3,0.9-4.8c0.6-1.4,1.4-2.7,2.5-3.7
			c1.1-1,2.3-1.8,3.8-2.4s3-0.8,4.7-0.8c1.5,0,3.1,0.3,4.6,0.9s2.8,1.5,3.7,2.7L329.2,36.4z"/>
		<path d="M340.8,34.2c0.5-1.1,1.4-2,2.7-2.8c1.3-0.8,2.7-1.2,4.3-1.2c1.4,0,2.7,0.2,3.7,0.7
			c1,0.5,1.9,1.1,2.6,1.9c0.7,0.8,1.2,1.8,1.5,2.8c0.3,1.1,0.5,2.3,0.5,3.5v13.7h-4.4V40.7c0-0.9-0.1-1.8-0.2-2.6
			c-0.1-0.8-0.4-1.5-0.8-2.2c-0.4-0.6-0.9-1.1-1.5-1.5c-0.6-0.4-1.5-0.6-2.5-0.6c-1.7,0-3.2,0.7-4.3,2c-1.1,1.3-1.7,3.1-1.7,5.3
			v11.7h-4.4V17.7h4.4L340.8,34.2C340.7,34.2,340.8,34.2,340.8,34.2z"/>
	</g>
	<path d="M45.1,44.2c-0.6,2.7-2.2,4.9-4.4,6.3c-2.4,1.4-5.4,1.7-8.4,0.8c-3-0.9-6.5-3.9-7.3-7.7
		c-0.5-2.7,0.6-5.3,3.3-7.6c5.9-4.8,7.5-9.6,7.5-13.4C40.8,27,47.2,34.6,45.1,44.2z M65.6,35.8c0,16.7-13.6,30.3-30.3,30.3
		C18.6,66.1,5,52.5,5,35.8S18.6,5.4,35.3,5.4C52,5.4,65.6,19,65.6,35.8z M32.8,14.2c-1-0.6-2.3-0.4-3.1,0.5
		c-0.8,0.9-0.8,2.2-0.1,3.1c0,0,0,0,0,0c0.5,0.7,4.5,6.9-4.4,14.3c-4.2,3.4-6,7.8-5.1,12.4c1,5.1,5.5,9.9,10.8,11.5
		c4.4,1.3,8.8,0.9,12.4-1.3c3.5-2,5.9-5.4,6.8-9.5C54,26.4,33.7,14.7,32.8,14.2z"/>
</g>
</svg>
