<svg width="48" height="48" version="1.1" viewBox="0 0 48 48" xmlns="http://www.w3.org/2000/svg">
 <path d="m44.484 41h-3.3264c0-5.1693 0.19841-5.9121-2.9362-6.6382-4.797-1.1058-9.3272-2.15-10.978-5.7589-0.60192-1.3173-1.0021-3.489 0.51688-6.3517 3.4047-6.4233 4.2584-11.932 2.3393-15.115-2.2359-3.7121-9.0254-3.7321-11.281 0.056623-1.9241 3.2258-1.0588 8.7049 2.3743 15.03 1.5506 2.8511 1.1621 5.0294 0.56356 6.3534-1.6373 3.6272-6.1275 4.6614-10.879 5.7555-3.2747 0.75608-3.0663 1.4489-3.0663 6.6682h-3.3264l-0.00835-2.0667c0-4.1967 0.3318-6.6199 5.2988-7.7656 5.6107-1.294 11.151-2.4531 8.4868-7.3576-7.8916-14.537-2.2509-22.779 6.2226-22.779 8.3084 0 14.091 7.9372 6.2226 22.779-2.5861 4.8762 2.7511 6.0353 8.4868 7.3576 4.967 1.1458 5.2988 3.5689 5.2988 7.7656zm-9.9958-4.9961h-8.3368v3.3307h8.3368z" stroke-width="1.6664"/>
 <g fill="#000000" font-family="sans-serif" font-size="40px">
  <g>
   <text x="1.8612841" y="29.854998" style="line-height:1.25" xml:space="preserve"><tspan x="1.8612841" y="29.854998"/></text>
   <text x="0.52115959" y="31.344025" style="line-height:1.25" xml:space="preserve"><tspan x="0.52115959" y="31.344025"/></text>
  </g>
 </g>
</svg>
