<svg width="48" height="48" version="1.1" viewBox="0 0 48 48" xmlns="http://www.w3.org/2000/svg">
 <g stroke-width="1.9048">
  <path transform="translate(-276.54 -483.63)" d="m291.17 508.67q-0.157 0.026-0.316 0.047 0.159-0.021 0.316-0.047z"/>
  <path transform="translate(-284.6 -482.8)" d="m299.49 507.79-0.151 0.026z"/>
  <path transform="translate(-263.94 -485.22)" d="m277.98 510.34q-0.184 0.021-0.371 0.037 0.191-0.016 0.371-0.037z"/>
  <path transform="translate(-272.35 -484.65)" d="m286.62 509.74-0.178 0.022z"/>
  <path transform="translate(-291.57 -481.48)" d="m306.8 506.41-0.133 0.028z"/>
  <path transform="translate(-308.51 -477.4)" d="m324.59 502.11-0.107 0.03z"/>
  <path transform="translate(-303.35 -478.76)" d="m319.18 503.54-0.117 0.03z"/>
  <path transform="translate(-296.7 -480.38)" d="m312.19 505.25-0.124 0.028z"/>
  <path transform="translate(-260.02 -485.93)" d="m273.68 511.09-0.2 0.015z"/>
  <path d="m48 24a24 24 0 1 0-24 24h0.42286v-18.686h-5.1543v-6.0095h5.1562v-4.4229a7.219 7.219 0 0 1 7.7067-7.92 42.45 42.45 0 0 1 4.6229 0.23619v5.36h-3.1562c-2.4895 0-2.9714 1.1829-2.9714 2.9181v3.8286h5.9448l-0.7619 6.0095h-5.181v17.764a24.015 24.015 0 0 0 17.371-23.078z"/>
  <path transform="translate(-251.85 -486.26)" d="m265.29 511.43q-0.2 0.013-0.395 0.02 0.198-7e-3 0.395-0.02z"/>
  <path transform="translate(-247.68 -486.64)" d="m260.71 511.84-0.209 5e-3z"/>
 </g>
</svg>
