<svg width="48" height="48" version="1.1" viewBox="0 0 48 48" xmlns="http://www.w3.org/2000/svg">
 <g stroke-width="1.9048">
  <path d="m28.596 24.002a4.5943 4.5943 0 1 1-4.5943-4.5943 4.5943 4.5943 0 0 1 4.5943 4.5943z"/>
  <path d="m34.747 15.874a4.5714 4.5714 0 0 0-2.6152-2.6152 7.619 7.619 0 0 0-2.5581-0.47429c-1.4533-0.06667-1.8895-0.08-5.5695-0.08s-4.1162 0.01333-5.5695 0.08a7.6305 7.6305 0 0 0-2.5581 0.47429 4.5714 4.5714 0 0 0-2.6152 2.6152 7.619 7.619 0 0 0-0.47428 2.56c-0.06667 1.4533-0.08 1.8895-0.08 5.5695s0.01524 4.1162 0.08 5.5695a7.619 7.619 0 0 0 0.47428 2.5581 4.5714 4.5714 0 0 0 2.6152 2.6152 7.619 7.619 0 0 0 2.56 0.47428c1.4533 0.06667 1.8895 0.08 5.5695 0.08s4.1162-0.01333 5.5695-0.08a7.619 7.619 0 0 0 2.56-0.47428 4.5714 4.5714 0 0 0 2.6152-2.6152 7.6324 7.6324 0 0 0 0.47429-2.5581c0.06667-1.4533 0.08-1.8895 0.08-5.5695s-0.01333-4.1162-0.08-5.5695a7.619 7.619 0 0 0-0.4781-2.56zm-10.745 15.206a7.0781 7.0781 0 1 1 7.0781-7.0781 7.0781 7.0781 0 0 1-7.0781 7.0781zm7.3581-12.781a1.6533 1.6533 0 1 1 1.6533-1.6533 1.6533 1.6533 0 0 1-1.6552 1.6533z"/>
  <path d="m24 0a24 24 0 1 0 24 24 24 24 0 0 0-24-24zm13.699 29.686a10.112 10.112 0 0 1-0.64 3.3448 7.0476 7.0476 0 0 1-4.0305 4.0305 10.12 10.12 0 0 1-3.3448 0.64c-1.4705 0.06667-1.939 0.08381-5.6819 0.08381s-4.2133-0.01524-5.6819-0.08381a10.12 10.12 0 0 1-3.3448-0.64 7.0476 7.0476 0 0 1-4.0305-4.0305 10.11 10.11 0 0 1-0.64-3.3448c-0.06857-1.4705-0.08381-1.939-0.08381-5.6819 0-3.7429 0.01524-4.2133 0.08381-5.6819a10.112 10.112 0 0 1 0.64-3.3448 7.0476 7.0476 0 0 1 4.0305-4.0343 10.122 10.122 0 0 1 3.3448-0.64c1.4705-0.06667 1.939-0.08381 5.6819-0.08381s4.2133 0.01524 5.6819 0.08381a10.124 10.124 0 0 1 3.3448 0.64 7.0476 7.0476 0 0 1 4.0305 4.0305 10.11 10.11 0 0 1 0.64 3.3448c0.06667 1.4705 0.0819 1.939 0.0819 5.6819s-0.01143 4.2152-0.07809 5.6857z"/>
 </g>
</svg>
